GRF
version=1
nRows=15
nColumns=19
inDegrees=no
endheader
time	1_ground_force_vx	1_ground_force_vy	1_ground_force_vz	1_ground_force_px	1_ground_force_py	1_ground_force_pz	1_ground_torque_x	1_ground_torque_y	1_ground_torque_z	2_ground_force_vx	2_ground_force_vy	2_ground_force_vz	2_ground_force_px	2_ground_force_py	2_ground_force_pz	2_ground_torque_x	2_ground_torque_y	2_ground_torque_z
      1.82000000	     12.28317656	    448.45845987	      1.92779221	      0.03048764	      0.00000000	     -0.47269109	      0.00000000	     -2.20712767	      0.00000000	      0.00000000	      0.00000000	      0.00000000	      0.00000000	      0.00000000	      0.00000000	      0.00000000	      0.00000000	      0.00000000
      1.82100000	     12.37033290	    449.68682794	      1.65970393	      0.03049267	      0.00000000	     -0.47305357	      0.00000000	     -2.20909751	      0.00000000	      0.00000000	      0.00000000	      0.00000000	      0.00000000	      0.00000000	      0.00000000	      0.00000000	      0.00000000	      0.00000000
      1.82200000	     12.47494636	    450.88039230	      1.36577512	      0.03049866	      0.00000000	     -0.47341619	      0.00000000	     -2.20865057	      0.00000000	      0.00000000	      0.00000000	      0.00000000	      0.00000000	      0.00000000	      0.00000000	      0.00000000	      0.00000000	      0.00000000
      1.82300000	     12.59062354	    452.01310813	      1.03972246	      0.03050865	      0.00000000	     -0.47378863	      0.00000000	     -2.20943844	      0.00000000	      0.00000000	      0.00000000	      0.00000000	      0.00000000	      0.00000000	      0.00000000	      0.00000000	      0.00000000	      0.00000000
      1.82400000	     12.71955811	    453.17632973	      0.68474216	      0.03051863	      0.00000000	     -0.47416206	      0.00000000	     -2.21491908	      0.00000000	      0.00000000	      0.00000000	      0.00000000	      0.00000000	      0.00000000	      0.00000000	      0.00000000	      0.00000000	      0.00000000
      1.82500000	     12.86257433	    454.48597767	      0.30601794	      0.03051797	      0.00000000	     -0.47451475	     -0.00000000	     -2.22409920	     -0.00000000	      0.00000000	      0.00000000	      0.00000000	      0.00000000	      0.00000000	      0.00000000	      0.00000000	      0.00000000	      0.00000000
      1.82600000	     13.02157688	    455.99057082	     -0.09281417	      0.03050819	      0.00000000	     -0.47482786	     -0.00000000	     -2.23368637	     -0.00000000	      0.00000000	      0.00000000	      0.00000000	      0.00000000	      0.00000000	      0.00000000	      0.00000000	      0.00000000	      0.00000000
      1.82700000	     13.19258412	    457.66324224	     -0.51927256	      0.03049930	      0.00000000	     -0.47510239	     -0.00000000	     -2.23874003	     -0.00000000	      0.00000000	      0.00000000	      0.00000000	      0.00000000	      0.00000000	      0.00000000	      0.00000000	      0.00000000	      0.00000000
      1.82800000	     13.37823495	    459.46303363	     -0.98771890	      0.03050608	      0.00000000	     -0.47535306	     -0.00000000	     -2.23452321	     -0.00000000	      0.00000000	      0.00000000	      0.00000000	      0.00000000	      0.00000000	      0.00000000	      0.00000000	      0.00000000	      0.00000000
      1.82900000	     13.58840680	    461.37276408	     -1.49717610	      0.03053691	      0.00000000	     -0.47559508	      0.00000000	     -2.22314507	      0.00000000	      0.00000000	      0.00000000	      0.00000000	      0.00000000	      0.00000000	      0.00000000	      0.00000000	      0.00000000	      0.00000000
      1.83000000	     13.83575963	    463.39974861	     -2.03410514	      0.03058302	      0.00000000	     -0.47584319	      0.00000000	     -2.21190495	      0.00000000	      0.00000000	      0.00000000	      0.00000000	      0.00000000	      0.00000000	      0.00000000	      0.00000000	      0.00000000	      0.00000000
      1.83100000	     14.12206881	    465.55786124	     -2.56994144	      0.03063493	      0.00000000	     -0.47609379	      0.00000000	     -2.20665703	      0.00000000	      0.00000000	      0.00000000	      0.00000000	      0.00000000	      0.00000000	      0.00000000	      0.00000000	      0.00000000	      0.00000000
      1.83200000	     14.43906523	    467.81315481	     -3.08197983	      0.03068185	      0.00000000	     -0.47634607	      0.00000000	     -2.20805805	      0.00000000	      0.00000000	      0.00000000	      0.00000000	      0.00000000	      0.00000000	      0.00000000	      0.00000000	      0.00000000	      0.00000000
      1.83300000	     14.77297547	    470.10024467	     -3.57559102	      0.03071590	      0.00000000	     -0.47660545	      0.00000000	     -2.20945551	      0.00000000	      0.00000000	      0.00000000	      0.00000000	      0.00000000	      0.00000000	      0.00000000	      0.00000000	      0.00000000	      0.00000000
      1.83400000	     15.11645750	    472.35656183	     -4.06089631	      0.03073963	      0.00000000	     -0.47688135	      0.00000000	     -2.20649188	      0.00000000	      0.00000000	      0.00000000	      0.00000000	      0.00000000	      0.00000000	      0.00000000	      0.00000000	      0.00000000	      0.00000000
